<?xml version="1.0" encoding="UTF-8" standalone="no"?>
<!DOCTYPE svg PUBLIC "-//W3C//DTD SVG 1.0//EN" "http://www.w3.org/TR/2001/PR-SVG-20010719/DTD/svg10.dtd">
<svg width="17cm" height="9cm" viewBox="12 -16 336 170" xmlns="http://www.w3.org/2000/svg" xmlns:xlink="http://www.w3.org/1999/xlink">
  <g>
    <path style="fill: none; fill-opacity:0; stroke-width: 0.6; stroke: #000000" d="M 81.3666 38.1231 C 88.1866,34.1453 91.5966,32.8194 98.4166,32.8194 C 105.237,32.8194 108.647,34.1453 115.467,38.1231 L 115.467,59.3379 C 108.647,63.3157 105.237,64.6416 98.4166,64.6416 C 91.5966,64.6416 88.1866,63.3157 81.3666,59.3379 L 81.3666,38.1231"/>
    <path style="fill: none; fill-opacity:0; stroke-width: 0.6; stroke: #000000" d="M 81.3666 38.1231 C 88.1866,42.1009 91.5966,43.4268 98.4166,43.4268 C 105.237,43.4268 108.647,42.1009 115.467,38.1231"/>
    <text font-size="5.64444" style="fill: #000000;text-anchor:middle;font-family:sans-serif;font-style:normal;font-weight:normal" x="98.4166" y="49.6185">
      <tspan x="98.4166" y="49.6185">SendCmds-</tspan>
      <tspan x="98.4166" y="56.674">Queue</tspan>
    </text>
  </g>
  <g>
    <path style="fill: none; fill-opacity:0; stroke-width: 0.6; stroke: #000000" d="M 226.436 33.7256 C 231.856,27.9839 234.566,26.07 239.986,26.07 C 245.406,26.07 248.116,27.9839 253.536,33.7256 L 253.536,64.3478 C 248.116,70.0894 245.406,72.0033 239.986,72.0033 C 234.566,72.0033 231.856,70.0894 226.436,64.3478 L 226.436,33.7256"/>
    <path style="fill: none; fill-opacity:0; stroke-width: 0.6; stroke: #000000" d="M 226.436 33.7256 C 231.856,39.4672 234.566,41.3811 239.986,41.3811 C 245.406,41.3811 248.116,39.4672 253.536,33.7256"/>
    <text font-size="5.64444" style="fill: #000000;text-anchor:middle;font-family:sans-serif;font-style:normal;font-weight:normal" x="239.986" y="47.5728">
      <tspan x="239.986" y="47.5728">TMC200-</tspan>
      <tspan x="239.986" y="54.6283">Feeback-</tspan>
      <tspan x="239.986" y="61.6839">Queue</tspan>
    </text>
  </g>
  <g>
    <rect style="fill: none; fill-opacity:0; stroke-width: 0.6; stroke: #000000" x="12.3498" y="41.1818" width="32.95" height="22.9667"/>
    <text font-size="5.64444" style="fill: #000000;text-anchor:middle;font-family:sans-serif;font-style:normal;font-weight:normal" x="28.8248" y="47.3318">
      <tspan x="28.8248" y="47.3318">Assamble</tspan>
      <tspan x="28.8248" y="54.3874">TMC200</tspan>
      <tspan x="28.8248" y="61.4429">commands</tspan>
    </text>
  </g>
  <g>
    <line style="fill: none; fill-opacity:0; stroke-width: 0.8; stroke: #000000" x1="45.2998" y1="52.6652" x2="75.4722" y2="52.7012"/>
    <polygon style="fill: #ffffff" points="75.4692,55.2012 80.4722,52.7071 75.4752,50.2012 "/>
    <polygon style="fill: none; fill-opacity:0; stroke-width: 0.8; stroke: #000000" points="75.4692,55.2012 80.4722,52.7071 75.4752,50.2012 "/>
  </g>
  <g>
    <line style="fill: none; fill-opacity:0; stroke-width: 0.8; stroke: #000000" x1="28.7394" y1="3.04424" x2="28.8144" y2="36.5374"/>
    <polygon style="fill: #000000" points="28.8228,40.2874 26.3116,35.293 28.8144,36.5374 31.3116,35.2818 "/>
    <polygon style="fill: none; fill-opacity:0; stroke-width: 0.8; stroke: #000000" points="28.8228,40.2874 26.3116,35.293 28.8144,36.5374 31.3116,35.2818 "/>
  </g>
  <g>
    <path style="fill: none; fill-opacity:0; stroke-width: 0.6; stroke: #000000" d="M 149.25 133.395 L 181.656,133.395 L 175.175,143.662 L 155.732,143.662 L 149.25,133.395"/>
    <text font-size="6.77333" style="fill: #000000;text-anchor:middle;font-family:sans-serif;font-style:normal;font-weight:normal" x="165.453" y="140.645">
      <tspan x="165.453" y="140.645"></tspan>
    </text>
  </g>
  <g>
    <path style="fill: none; fill-opacity:0; stroke-width: 0.6; stroke: #000000" d="M 149.404 24.0253 L 181.81,24.0253 L 175.329,13.7586 L 155.886,13.7586 L 149.404,24.0253"/>
    <text font-size="6.77333" style="fill: #000000;text-anchor:middle;font-family:sans-serif;font-style:normal;font-weight:normal" x="165.607" y="21.0086">
      <tspan x="165.607" y="21.0086"></tspan>
    </text>
  </g>
  <g>
    <rect style="fill: none; fill-opacity:0; stroke-width: 0.6; stroke: #000000" x="155.17" y="81.2572" width="20.95" height="8.85556"/>
    <text font-size="5.64444" style="fill: #000000;text-anchor:middle;font-family:sans-serif;font-style:normal;font-weight:normal" x="165.645" y="87.4072">
      <tspan x="165.645" y="87.4072">send it</tspan>
    </text>
  </g>
  <g>
    <rect style="fill: none; fill-opacity:0; stroke-width: 0.6; stroke: #000000" x="154.492" y="102.011" width="22.35" height="15.9111"/>
    <text font-size="5.64444" style="fill: #000000;text-anchor:middle;font-family:sans-serif;font-style:normal;font-weight:normal" x="165.667" y="108.161">
      <tspan x="165.667" y="108.161">receive</tspan>
      <tspan x="165.667" y="115.217">answer</tspan>
    </text>
  </g>
  <g>
    <path style="fill: none; fill-opacity:0; stroke-width: 0.6; stroke: #000000" d="M 291.786 124.647 L 324.191,124.647 L 317.71,134.914 L 298.267,134.914 L 291.786,124.647"/>
    <text font-size="6.77333" style="fill: #000000;text-anchor:middle;font-family:sans-serif;font-style:normal;font-weight:normal" x="307.989" y="131.897">
      <tspan x="307.989" y="131.897"></tspan>
    </text>
  </g>
  <g>
    <path style="fill: none; fill-opacity:0; stroke-width: 0.6; stroke: #000000" d="M 292.186 23.2152 L 324.592,23.2152 L 318.111,12.9485 L 298.667,12.9485 L 292.186,23.2152"/>
    <text font-size="6.77333" style="fill: #000000;text-anchor:middle;font-family:sans-serif;font-style:normal;font-weight:normal" x="308.389" y="20.1985">
      <tspan x="308.389" y="20.1985"></tspan>
    </text>
  </g>
  <g>
    <rect style="fill: none; fill-opacity:0; stroke-width: 0.6; stroke: #000000" x="294.592" y="87.3314" width="26.8" height="15.9111"/>
    <text font-size="5.64444" style="fill: #000000;text-anchor:middle;font-family:sans-serif;font-style:normal;font-weight:normal" x="307.992" y="93.4814">
      <tspan x="307.992" y="93.4814">Process</tspan>
      <tspan x="307.992" y="100.537">item</tspan>
    </text>
  </g>
  <g>
    <polyline style="fill: none; fill-opacity:0; stroke-width: 0.8; stroke-dasharray: 10; stroke: #000000" points="41.3894,-4.9113 308.388,-4.9113 308.388,8.30409 "/>
    <polygon style="fill: #000000" points="308.388,12.0541 305.888,7.05409 308.388,8.30409 310.888,7.05409 "/>
    <polygon style="fill: none; fill-opacity:0; stroke-width: 0.8; stroke: #000000" points="308.388,12.0541 305.888,7.05409 308.388,8.30409 310.888,7.05409 "/>
  </g>
  <g>
    <polyline style="fill: none; fill-opacity:0; stroke-width: 0.8; stroke-dasharray: 10; stroke: #000000" points="41.3894,-4.9113 239.986,-4.9113 239.986,21.4256 "/>
    <polygon style="fill: #000000" points="239.986,25.1756 237.486,20.1756 239.986,21.4256 242.486,20.1756 "/>
    <polygon style="fill: none; fill-opacity:0; stroke-width: 0.8; stroke: #000000" points="239.986,25.1756 237.486,20.1756 239.986,21.4256 242.486,20.1756 "/>
  </g>
  <g>
    <polyline style="fill: none; fill-opacity:0; stroke-width: 0.8; stroke-dasharray: 10; stroke: #000000" points="41.3894,-4.9113 165.607,-4.9113 165.607,9.11417 "/>
    <polygon style="fill: #000000" points="165.607,12.8642 163.107,7.86417 165.607,9.11417 168.107,7.86417 "/>
    <polygon style="fill: none; fill-opacity:0; stroke-width: 0.8; stroke: #000000" points="165.607,12.8642 163.107,7.86417 165.607,9.11417 168.107,7.86417 "/>
  </g>
  <g>
    <polyline style="fill: none; fill-opacity:0; stroke-width: 0.8; stroke-dasharray: 10; stroke: #000000" points="41.3894,-4.9113 98.4166,-4.9113 98.4166,28.175 "/>
    <polygon style="fill: #000000" points="98.4166,31.925 95.9166,26.925 98.4166,28.175 100.917,26.925 "/>
    <polygon style="fill: none; fill-opacity:0; stroke-width: 0.8; stroke: #000000" points="98.4166,31.925 95.9166,26.925 98.4166,28.175 100.917,26.925 "/>
  </g>
  <text font-size="5.64444" style="fill: #000000;text-anchor:middle;font-family:sans-serif;font-style:normal;font-weight:normal" x="149.762" y="-10.6598">
    <tspan x="149.762" y="-10.6598">Initialize / Clean up</tspan>
  </text>
  <g>
    <polygon style="fill: none; fill-opacity:0; stroke-width: 0.6; stroke: #000000" points="165.504,35.585 192.456,52.7015 165.504,69.818 138.552,52.7015 "/>
    <text font-size="5.64444" style="fill: #000000;text-anchor:middle;font-family:sans-serif;font-style:normal;font-weight:normal" x="165.504" y="50.8959">
      <tspan x="165.504" y="50.8959">Are Items</tspan>
      <tspan x="165.504" y="57.9515">available</tspan>
    </text>
  </g>
  <g>
    <line style="fill: none; fill-opacity:0; stroke-width: 0.8; stroke: #000000" x1="165.607" y1="24.0252" x2="165.545" y2="30.9408"/>
    <polygon style="fill: #000000" points="165.512,34.6906 163.057,29.6684 165.545,30.9408 168.056,29.7132 "/>
    <polygon style="fill: none; fill-opacity:0; stroke-width: 0.8; stroke: #000000" points="165.512,34.6906 163.057,29.6684 165.545,30.9408 168.056,29.7132 "/>
  </g>
  <g>
    <line style="fill: none; fill-opacity:0; stroke-width: 0.8; stroke: #000000" x1="165.504" y1="69.818" x2="165.587" y2="76.6131"/>
    <polygon style="fill: #000000" points="165.634,80.3628 163.072,75.3941 165.587,76.6131 168.072,75.3324 "/>
    <polygon style="fill: none; fill-opacity:0; stroke-width: 0.8; stroke: #000000" points="165.634,80.3628 163.072,75.3941 165.587,76.6131 168.072,75.3324 "/>
  </g>
  <g>
    <polyline style="fill: none; fill-opacity:0; stroke-width: 0.8; stroke: #000000" points="192.456,52.7016 202.8,52.7016 202.8,123.114 165.453,123.114 165.453,128.751 "/>
    <polygon style="fill: #000000" points="165.453,132.501 162.953,127.501 165.453,128.751 167.953,127.501 "/>
    <polygon style="fill: none; fill-opacity:0; stroke-width: 0.8; stroke: #000000" points="165.453,132.501 162.953,127.501 165.453,128.751 167.953,127.501 "/>
  </g>
  <g>
    <line style="fill: none; fill-opacity:0; stroke-width: 0.8; stroke: #000000" x1="165.645" y1="90.1128" x2="165.658" y2="97.3666"/>
    <polygon style="fill: #000000" points="165.665,101.117 163.156,96.1212 165.658,97.3666 168.156,96.1119 "/>
    <polygon style="fill: none; fill-opacity:0; stroke-width: 0.8; stroke: #000000" points="165.665,101.117 163.156,96.1212 165.658,97.3666 168.156,96.1119 "/>
  </g>
  <g>
    <line style="fill: none; fill-opacity:0; stroke-width: 0.8; stroke: #000000" x1="165.667" y1="117.922" x2="165.518" y2="128.751"/>
    <polygon style="fill: #000000" points="165.466,132.501 163.035,127.467 165.518,128.751 168.035,127.536 "/>
    <polygon style="fill: none; fill-opacity:0; stroke-width: 0.8; stroke: #000000" points="165.466,132.501 163.035,127.467 165.518,128.751 168.035,127.536 "/>
  </g>
  <g>
    <line style="fill: none; fill-opacity:0; stroke-width: 0.8; stroke: #000000" x1="138.552" y1="52.7016" x2="121.361" y2="52.7065"/>
    <polygon style="fill: #ffffff" points="121.36,50.2065 116.361,52.7079 121.362,55.2065 "/>
    <polygon style="fill: none; fill-opacity:0; stroke-width: 0.8; stroke: #000000" points="121.36,50.2065 116.361,52.7079 121.362,55.2065 "/>
  </g>
  <g>
    <polyline style="fill: none; fill-opacity:0; stroke-width: 0.8; stroke: #000000" points="98.4166,64.6416 98.4166,85.685 149.275,85.685 "/>
    <polygon style="fill: none; fill-opacity:0; stroke-width: 0.8; stroke: #000000" points="149.275,88.185 154.275,85.685 149.275,83.185 "/>
  </g>
  <text font-size="5.64444" style="fill: #000000;text-anchor:middle;font-family:sans-serif;font-style:normal;font-weight:normal" x="60.7586" y="51.0836">
    <tspan x="60.7586" y="51.0836">Add new</tspan>
    <tspan x="60.7586" y="58.1392">Item</tspan>
  </text>
  <text font-size="5.64444" style="fill: #000000;text-anchor:middle;font-family:sans-serif;font-style:normal;font-weight:normal" x="130.731" y="50.4954">
    <tspan x="130.731" y="50.4954">query</tspan>
  </text>
  <text font-size="5.64444" style="fill: #000000;text-anchor:middle;font-family:sans-serif;font-style:normal;font-weight:normal" x="122.37" y="82.2576">
    <tspan x="122.37" y="82.2576">Take next item</tspan>
  </text>
  <text font-size="5.64444" style="fill: #000000;text-anchor:middle;font-family:sans-serif;font-style:normal;font-weight:normal" x="172.534" y="72.4106">
    <tspan x="172.534" y="72.4106">yes</tspan>
  </text>
  <text font-size="5.64444" style="fill: #000000;text-anchor:middle;font-family:sans-serif;font-style:normal;font-weight:normal" x="196.302" y="57.5038">
    <tspan x="196.302" y="57.5038">no</tspan>
  </text>
  <g>
    <polygon style="fill: none; fill-opacity:0; stroke-width: 0.6; stroke: #000000" points="308.234,37.6854 335.186,54.8019 308.234,71.9184 281.282,54.8019 "/>
    <text font-size="5.64444" style="fill: #000000;text-anchor:middle;font-family:sans-serif;font-style:normal;font-weight:normal" x="308.234" y="52.9963">
      <tspan x="308.234" y="52.9963">Are Items</tspan>
      <tspan x="308.234" y="60.0519">available</tspan>
    </text>
  </g>
  <g>
    <line style="fill: none; fill-opacity:0; stroke-width: 0.8; stroke: #000000" x1="308.234" y1="71.9182" x2="308.065" y2="82.6875"/>
    <polygon style="fill: #000000" points="308.006,86.4371 305.585,81.3985 308.065,82.6875 310.584,81.4769 "/>
    <polygon style="fill: none; fill-opacity:0; stroke-width: 0.8; stroke: #000000" points="308.006,86.4371 305.585,81.3985 308.065,82.6875 310.584,81.4769 "/>
  </g>
  <text font-size="5.64444" style="fill: #000000;text-anchor:middle;font-family:sans-serif;font-style:normal;font-weight:normal" x="315.456" y="74.8808">
    <tspan x="315.456" y="74.8808">yes</tspan>
  </text>
  <text font-size="5.64444" style="fill: #000000;text-anchor:middle;font-family:sans-serif;font-style:normal;font-weight:normal" x="339.731" y="60.4175">
    <tspan x="339.731" y="60.4175">no</tspan>
  </text>
  <g>
    <line style="fill: none; fill-opacity:0; stroke-width: 0.8; stroke: #000000" x1="308.388" y1="23.2152" x2="308.283" y2="33.0412"/>
    <polygon style="fill: #000000" points="308.244,36.791 305.797,31.7647 308.283,33.0412 310.797,31.8179 "/>
    <polygon style="fill: none; fill-opacity:0; stroke-width: 0.8; stroke: #000000" points="308.244,36.791 305.797,31.7647 308.283,33.0412 310.797,31.8179 "/>
  </g>
  <g>
    <line style="fill: none; fill-opacity:0; stroke-width: 0.8; stroke: #000000" x1="281.282" y1="54.8018" x2="259.43" y2="54.7832"/>
    <polygon style="fill: #ffffff" points="259.433,52.2832 254.43,54.779 259.428,57.2832 "/>
    <polygon style="fill: none; fill-opacity:0; stroke-width: 0.8; stroke: #000000" points="259.433,52.2832 254.43,54.779 259.428,57.2832 "/>
  </g>
  <g>
    <polyline style="fill: none; fill-opacity:0; stroke-width: 0.8; stroke: #000000" points="239.986,72.0032 239.986,95.287 288.698,95.287 "/>
    <polygon style="fill: none; fill-opacity:0; stroke-width: 0.8; stroke: #000000" points="288.698,97.787 293.698,95.287 288.698,92.787 "/>
  </g>
  <text font-size="5.64444" style="fill: #000000;text-anchor:middle;font-family:sans-serif;font-style:normal;font-weight:normal" x="270.592" y="53.0534">
    <tspan x="270.592" y="53.0534">query</tspan>
  </text>
  <text font-size="5.64444" style="fill: #000000;text-anchor:middle;font-family:sans-serif;font-style:normal;font-weight:normal" x="262.19" y="92.8352">
    <tspan x="262.19" y="92.8352">Take next item</tspan>
  </text>
  <g>
    <polyline style="fill: none; fill-opacity:0; stroke-width: 0.8; stroke: #000000" points="154.492,109.966 142.92,109.966 142.92,146.819 210.072,146.819 210.072,54.7782 220.542,54.7782 "/>
    <polygon style="fill: none; fill-opacity:0; stroke-width: 0.8; stroke: #000000" points="220.542,57.2782 225.542,54.7782 220.542,52.2782 "/>
  </g>
  <text font-size="5.64444" style="fill: #000000;text-anchor:middle;font-family:sans-serif;font-style:normal;font-weight:normal" x="30.2276" y="-5.93866">
    <tspan x="30.2276" y="-5.93866">Main</tspan>
    <tspan x="30.2276" y="1.1169">application</tspan>
  </text>
  <text font-size="5.64444" style="fill: #000000;text-anchor:middle;font-family:sans-serif;font-style:normal;font-weight:normal" x="167.321" y="6.45246">
    <tspan x="167.321" y="6.45246">sendTMC200Cmd-Thrad</tspan>
  </text>
  <g>
    <polyline style="fill: none; fill-opacity:0; stroke-width: 0.8; stroke: #000000" points="335.186,54.8019 346.954,54.8019 346.954,108.204 307.989,108.204 307.989,120.003 "/>
    <polygon style="fill: #000000" points="307.989,123.753 305.489,118.753 307.989,120.003 310.489,118.753 "/>
    <polygon style="fill: none; fill-opacity:0; stroke-width: 0.8; stroke: #000000" points="307.989,123.753 305.489,118.753 307.989,120.003 310.489,118.753 "/>
  </g>
  <text font-size="5.64444" style="fill: #000000;text-anchor:middle;font-family:sans-serif;font-style:normal;font-weight:normal" x="305.51" y="5.61604">
    <tspan x="305.51" y="5.61604">tmc200Feedback-Thread</tspan>
  </text>
  <g>
    <line style="fill: none; fill-opacity:0; stroke-width: 0.8; stroke: #000000" x1="307.992" y1="103.243" x2="307.989" y2="120.003"/>
    <polygon style="fill: #000000" points="307.989,123.753 305.49,118.752 307.989,120.003 310.49,118.753 "/>
    <polygon style="fill: none; fill-opacity:0; stroke-width: 0.8; stroke: #000000" points="307.989,123.753 305.49,118.752 307.989,120.003 310.49,118.753 "/>
  </g>
  <text font-size="5.64444" style="fill: #000000;text-anchor:middle;font-family:sans-serif;font-style:normal;font-weight:normal" x="192.16" y="145.273">
    <tspan x="192.16" y="145.273">Add new</tspan>
    <tspan x="192.16" y="152.329">Item</tspan>
  </text>
</svg>
